Coordinates
version=1
nRows=26
nColumns=34
inDegrees=no

Units are S.I. units (second, meters, Newtons, ...)
If the header above contains a line with 'inDegrees', this indicates whether rotational values are in degrees (yes) or radians (no).

endheader
time	pelvis_tilt	pelvis_list	pelvis_rotation	pelvis_tx	pelvis_ty	pelvis_tz	hip_flexion_r	hip_adduction_r	hip_rotation_r	knee_angle_r	ankle_angle_r	subtalar_angle_r	mtp_angle_r	hip_flexion_l	hip_adduction_l	hip_rotation_l	knee_angle_l	ankle_angle_l	subtalar_angle_l	mtp_angle_l	lumbar_extension	lumbar_bending	lumbar_rotation	arm_flex_r	arm_add_r	arm_rot_r	elbow_flex_r	pro_sup_r	arm_flex_l	arm_add_l	arm_rot_l	elbow_flex_l	pro_sup_l
0.44	0.0157505	-0.0664416	-0.155893	0.384599	0.945854	-0.217308	-0.18603	0.112028	0.0322069	0.11128	0.417061	0.101902	0	0.445553	-0.130874	-0.118003	0.15559	0.058694	0.113056	0	-0.14073	0.0802574	0.106376	0.206512	-0.208622	-0.000357482	0.823791	2.09	-0.309596	-0.110173	-0.325651	0.433462	2.09
0.45	0.0171515	-0.0701263	-0.161218	0.396988	0.943346	-0.216863	-0.204453	0.112361	0.0380177	0.109528	0.426576	0.103527	0	0.438966	-0.13361	-0.115614	0.115613	0.0660147	0.0988429	0	-0.144079	0.0840355	0.110275	0.215939	-0.210288	0.00386229	0.830005	2.09	-0.317316	-0.109154	-0.329552	0.430799	2.09
0.46	0.0186364	-0.0728214	-0.165857	0.409465	0.940858	-0.216532	-0.221619	0.11145	0.0423885	0.110094	0.435792	0.106088	0	0.432459	-0.134634	-0.106287	0.0816812	0.0685095	0.0696544	0	-0.147298	0.0865809	0.113353	0.224394	-0.211317	0.00734841	0.835339	2.09	-0.323633	-0.108094	-0.33511	0.427927	2.09
0.47	0.0194352	-0.0744909	-0.169978	0.422016	0.938375	-0.216268	-0.236212	0.109415	0.0440936	0.113816	0.445219	0.111441	0	0.428266	-0.134894	-0.0987241	0.0571667	0.0700811	0.0405484	0	-0.149509	0.0879184	0.116052	0.231304	-0.211683	0.00954432	0.840152	2.09	-0.328322	-0.107552	-0.339996	0.424031	2.09
0.48	0.0195932	-0.0749393	-0.173555	0.434649	0.935943	-0.216053	-0.24836	0.106137	0.0436416	0.12041	0.454275	0.118632	0	0.427001	-0.134211	-0.0969125	0.043696	0.0727778	0.0196037	0	-0.150692	0.0877527	0.118351	0.236452	-0.211311	0.0103442	0.844592	2.09	-0.331359	-0.10764	-0.344323	0.419104	2.09
0.49	0.0194013	-0.0739028	-0.176516	0.447399	0.933614	-0.215894	-0.258314	0.101183	0.0394574	0.129895	0.463351	0.129796	0	0.427903	-0.131863	-0.0973416	0.0403541	0.0740601	0.00224975	0	-0.151023	0.0857097	0.120146	0.239656	-0.210167	0.00974288	0.848808	2.09	-0.332828	-0.108374	-0.348455	0.413294	2.09
0.5	0.0188907	-0.071264	-0.178767	0.460297	0.931412	-0.215793	-0.266266	0.0943971	0.0313869	0.141934	0.472088	0.14489	0	0.430855	-0.127711	-0.100046	0.0466046	0.0736396	-0.010247	0	-0.15039	0.0816375	0.121327	0.24073	-0.208261	0.00781577	0.852862	2.09	-0.332886	-0.109821	-0.35225	0.406688	2.09
0.51	0.0181192	-0.0668475	-0.180276	0.473374	0.929352	-0.21577	-0.271957	0.0851822	0.0159065	0.15712	0.481739	0.169012	0	0.435419	-0.121551	-0.104319	0.0609009	0.070331	-0.0187836	0	-0.148718	0.0753535	0.121827	0.239574	-0.205642	0.00470383	0.856767	2.09	-0.331741	-0.111982	-0.355587	0.39952	2.09
0.52	0.0171535	-0.0607261	-0.180907	0.486662	0.927449	-0.215846	-0.275905	0.0735469	-0.00563476	0.174709	0.491069	0.199952	0	0.441118	-0.113418	-0.109613	0.0813155	0.0632049	-0.0241563	0	-0.145988	0.066976	0.12142	0.236253	-0.202428	0.000891558	0.860329	2.09	-0.329668	-0.114779	-0.358392	0.392178	2.09
0.53	0.0163062	-0.0534752	-0.180415	0.500199	0.925753	-0.216021	-0.280705	0.06155	-0.0188056	0.190601	0.493321	0.216423	0	0.446944	-0.103656	-0.113822	0.105358	0.0507664	-0.0296789	0	-0.14257	0.0570949	0.119854	0.230921	-0.198741	-0.00311771	0.863289	2.09	-0.326899	-0.118053	-0.360936	0.385199	2.09
0.54	0.015233	-0.0448046	-0.178983	0.513975	0.924237	-0.21634	-0.28397	0.0475465	-0.0367178	0.208611	0.494258	0.237983	0	0.452974	-0.0920494	-0.117255	0.131179	0.0331465	-0.0358243	0	-0.138076	0.0455781	0.117383	0.223481	-0.19471	-0.00750476	0.865731	2.09	-0.323488	-0.121724	-0.362855	0.378847	2.09
0.55	0.0137577	-0.034344	-0.176517	0.527982	0.922877	-0.216889	-0.283632	0.0289398	-0.0741621	0.232545	0.49922	0.286153	0	0.459072	-0.0779255	-0.11806	0.157052	0.0105534	-0.0457451	0	-0.13228	0.0322197	0.113702	0.214175	-0.190521	-0.011645	0.867398	2.09	-0.3197	-0.125382	-0.365458	0.373875	2.09
0.56	0.0124867	-0.0246729	-0.172797	0.54223	0.921838	-0.217484	-0.286992	0.0157954	-0.0784588	0.249549	0.486789	0.284016	0	0.464905	-0.064602	-0.120258	0.18425	-0.00945196	-0.0493958	0	-0.126422	0.0195047	0.109243	0.202967	-0.186259	-0.0157642	0.868319	2.09	-0.315157	-0.129438	-0.365882	0.369466	2.09
0.57	0.0108723	-0.0145039	-0.168146	0.556678	0.921035	-0.218231	-0.288255	0.00202821	-0.0851067	0.269546	0.471122	0.283433	0	0.471007	-0.0506536	-0.121992	0.21225	-0.0259698	-0.0513439	0	-0.119777	0.00631079	0.104072	0.189932	-0.181939	-0.019962	0.868501	2.09	-0.310083	-0.133394	-0.366299	0.366384	2.09
0.58	0.0089954	-0.00421056	-0.162634	0.571299	0.920497	-0.219117	-0.287189	-0.011946	-0.0929363	0.293065	0.45138	0.282853	0	0.477457	-0.036641	-0.123898	0.24187	-0.0351416	-0.0500985	0	-0.112618	-0.00694308	0.0983308	0.175209	-0.17763	-0.0242045	0.867946	2.09	-0.304424	-0.137239	-0.365963	0.364423	2.09
0.59	0.00698465	0.00586497	-0.156384	0.586061	0.920248	-0.220121	-0.283441	-0.0257973	-0.10084	0.320864	0.426792	0.280879	0	0.484063	-0.0230381	-0.126429	0.273503	-0.0346245	-0.045081	0	-0.105268	-0.0198895	0.0921495	0.158999	-0.173355	-0.0285308	0.866672	2.09	-0.298155	-0.140895	-0.364556	0.363533	2.09
0.6	0.0050546	0.0154351	-0.149496	0.600922	0.920312	-0.221231	-0.276626	-0.0392957	-0.107923	0.353807	0.396662	0.276301	0	0.490143	-0.010104	-0.129583	0.306558	-0.0241882	-0.0367217	0	-0.098134	-0.0322206	0.0855557	0.141607	-0.169138	-0.0329054	0.864689	2.09	-0.291269	-0.144272	-0.361807	0.363771	2.09
0.61	0.0032371	0.0242533	-0.142041	0.615827	0.920693	-0.222431	-0.266048	-0.0522553	-0.1136	0.392856	0.36043	0.268056	0	0.495123	0.0016463	-0.134698	0.340089	-0.00395113	-0.0228457	0	-0.0913985	-0.043638	0.0785243	0.123358	-0.164993	-0.03729	0.862012	2.09	-0.283785	-0.147333	-0.357254	0.365237	2.09
0.62	0.00222668	0.0325707	-0.134013	0.630719	0.921443	-0.223753	-0.251918	-0.0650928	-0.117566	0.4384	0.31745	0.254876	0	0.496814	0.01359	-0.137994	0.370674	0.0203843	-0.0106446	0	-0.0859652	-0.0544471	0.0707338	0.104869	-0.160949	-0.041321	0.858514	2.09	-0.275677	-0.149951	-0.351234	0.368313	2.09
0.63	0.00192841	0.0406858	-0.12543	0.645526	0.922527	-0.225213	-0.233571	-0.0784228	-0.120611	0.490901	0.267548	0.236751	0	0.49471	0.0262011	-0.139579	0.396565	0.0464378	-7.57712e-05	0	-0.0818037	-0.0648877	0.0619712	0.0865654	-0.156993	-0.0447955	0.854046	2.09	-0.266978	-0.152124	-0.343698	0.373196	2.09
0.64	0.00219769	0.0489248	-0.116399	0.660176	0.923892	-0.226817	-0.210732	-0.0928709	-0.123163	0.549953	0.210324	0.213143	0	0.488658	0.0398386	-0.139666	0.416612	0.0723335	0.0091063	0	-0.0788096	-0.0752413	0.0520937	0.0688794	-0.153126	-0.0474042	0.848336	2.09	-0.257723	-0.153856	-0.334895	0.379998	2.09
0.65	0.00273494	0.0574969	-0.107147	0.674604	0.925451	-0.228551	-0.183451	-0.108847	-0.125231	0.614223	0.145368	0.183317	0	0.479064	0.0545306	-0.138636	0.430551	0.0969518	0.0173763	0	-0.076678	-0.085668	0.0411351	0.0521543	-0.149358	-0.0488703	0.841027	2.09	-0.247944	-0.155188	-0.325102	0.388612	2.09
0.66	0.0030981	0.0661	-0.0981119	0.688749	0.927106	-0.230344	-0.152063	-0.12561	-0.125343	0.6814	0.0720592	0.144828	0	0.466952	0.0690582	-0.138668	0.439415	0.121327	0.0285146	0	-0.0749464	-0.0958215	0.0294833	0.0366271	-0.145724	-0.0490352	0.831726	2.09	-0.237635	-0.156213	-0.314358	0.398662	2.09
0.67	0.00335031	0.0755083	-0.0893305	0.702596	0.9288	-0.232236	-0.117747	-0.145124	-0.126271	0.749288	-0.00522813	0.104612	0	0.452212	0.0855315	-0.135244	0.442274	0.140873	0.0334471	0	-0.0736066	-0.106495	0.0170541	0.0224997	-0.142204	-0.0479142	0.820131	2.09	-0.22681	-0.157033	-0.302996	0.409888	2.09
0.68	0.00307898	0.0845674	-0.0814138	0.716107	0.930464	-0.234074	-0.0811521	-0.164499	-0.124375	0.814997	-0.084525	0.0583443	0	0.436266	0.101042	-0.132776	0.441549	0.159341	0.0401527	0	-0.0722426	-0.116528	0.00469223	0.00983937	-0.138843	-0.0457127	0.80604	2.09	-0.21536	-0.157811	-0.290572	0.421754	2.09
0.69	0.00236992	0.0930924	-0.0745382	0.729287	0.932086	-0.23581	-0.0432712	-0.183302	-0.120138	0.876789	-0.158576	0.00982088	0	0.419383	0.115396	-0.130869	0.437827	0.176313	0.0475443	0	-0.0709074	-0.125789	-0.00727479	-0.00133529	-0.135614	-0.0427773	0.789508	2.09	-0.203203	-0.158683	-0.27706	0.434053	2.09
